#define cast-3_width 16
#define cast-3_height 16
static unsigned char cast-3_bits[] = {
   0x00, 0x00, 0x00, 0x00, 0xc0, 0x03, 0xe0, 0x07, 0xf0, 0x0f, 0xf0, 0x0f,
   0xf6, 0x0f, 0xe6, 0x07, 0xc6, 0x03, 0xe6, 0x07, 0xe6, 0x07, 0xec, 0x07,
   0xf8, 0x07, 0xf8, 0x07, 0xe0, 0x07, 0xe0, 0x07};
