#define cast-4_width 16
#define cast-4_height 16
static unsigned char cast-4_bits[] = {
   0x10, 0x00, 0x18, 0x00, 0xcc, 0x03, 0xe4, 0x07, 0xf4, 0x0f, 0xf4, 0x0f,
   0xf4, 0x0f, 0xe4, 0x07, 0xc4, 0x03, 0xe4, 0x07, 0xe4, 0x07, 0xec, 0x07,
   0xfc, 0x07, 0xfc, 0x07, 0xe0, 0x07, 0xe0, 0x07};
