#define cast-2_width 16
#define cast-2_height 16
static unsigned char cast-2_bits[] = {
   0x00, 0x00, 0x00, 0x00, 0xc0, 0x03, 0xe0, 0x07, 0xf0, 0x0f, 0xf0, 0x0f,
   0xf0, 0x0f, 0xe0, 0x07, 0xc1, 0x03, 0xe3, 0x07, 0xe6, 0x07, 0xec, 0x07,
   0xf8, 0x07, 0xf8, 0x07, 0xe0, 0x07, 0xe0, 0x07};
