#define cast-1_width 16
#define cast-1_height 16
static unsigned char cast-1_bits[] = {
   0x00, 0x00, 0x00, 0x00, 0xc0, 0x03, 0xe0, 0x07, 0xf0, 0x0f, 0xf0, 0x0f,
   0xf0, 0x0f, 0xe0, 0x07, 0xc0, 0x03, 0xe4, 0x07, 0xec, 0x07, 0xf8, 0x07,
   0xe0, 0x07, 0xe0, 0x07, 0xe0, 0x07, 0xe0, 0x07};
