#define player_width 16
#define player_height 16
static unsigned char player_bits[] = {
   0x00, 0x00, 0x00, 0x00, 0xc0, 0x01, 0xe0, 0x03, 0xf0, 0x07, 0xf0, 0x07,
   0xf0, 0x07, 0xe0, 0x03, 0xc0, 0x01, 0xf2, 0x07, 0xf4, 0x07, 0xf8, 0x07,
   0xf0, 0x07, 0xf0, 0x07, 0xf0, 0x07, 0xf0, 0x07};
