#define player_width 16
#define player_height 16
static unsigned char player_bits[] = {
   0x00, 0x00, 0x00, 0x00, 0xc0, 0x03, 0xe0, 0x07, 0xf0, 0x0f, 0xf0, 0x0f,
   0xf0, 0x0f, 0xe0, 0x07, 0xc0, 0x03, 0xe4, 0x07, 0xe8, 0x07, 0xf0, 0x07,
   0xe0, 0x07, 0xe0, 0x07, 0xe0, 0x07, 0xe0, 0x07};
