#define playerShrink_width 10
#define playerShrink_height 14
static unsigned char playerShrink_bits[] = {
   0xe0, 0x00, 0xf0, 0x01, 0xf8, 0x03, 0xf8, 0x03, 0xf8, 0x03, 0xf0, 0x01,
   0xe0, 0x00, 0xf9, 0x03, 0xfa, 0x03, 0xfc, 0x03, 0xf8, 0x03, 0xf8, 0x03,
   0xf8, 0x03, 0xf8, 0x03};
